<?xml version="1.0" encoding="UTF-8"?>
<svg version="1.1" xmlns="http://www.w3.org/2000/svg" width="500" height="500">
<path d="M0 0 C0.84658173 -0.00979385 1.69316345 -0.01958771 2.56539917 -0.02967834 C43.04623678 -0.40118307 80.91413133 5.88360984 116.9765625 25.21728516 C118.25078418 25.89976403 119.52950762 26.57390162 120.8125 27.23974609 C137.55763195 35.93595041 152.25737206 47.25253285 165.8828125 60.23828125 C167.25107053 61.41284758 168.62543334 62.58036762 170.0078125 63.73828125 C184.43226344 76.35597345 196.07831327 92.86563518 205.8828125 109.23828125 C206.27533203 109.88249023 206.66785156 110.52669922 207.07226562 111.19042969 C225.26285636 141.30147886 236.78062963 178.01823447 237.12109375 213.35546875 C237.1308876 214.20205048 237.14068146 215.0486322 237.15077209 215.92086792 C237.52227682 256.40170553 231.23748391 294.26960008 211.90380859 330.33203125 C211.22132972 331.60625293 210.54719213 332.88497637 209.88134766 334.16796875 C201.18514334 350.9131007 189.8685609 365.61284081 176.8828125 379.23828125 C175.70824617 380.60653928 174.54072613 381.98090209 173.3828125 383.36328125 C160.7651203 397.78773219 144.25545857 409.43378202 127.8828125 419.23828125 C127.23860352 419.63080078 126.59439453 420.02332031 125.93066406 420.42773438 C95.81961489 438.61832511 59.10285928 450.13609838 23.765625 450.4765625 C22.91904327 450.48635635 22.07246155 450.49615021 21.20022583 450.50624084 C-19.28061178 450.87774557 -57.14850633 444.59295266 -93.2109375 425.25927734 C-94.48515918 424.57679847 -95.76388262 423.90266088 -97.046875 423.23681641 C-113.79200695 414.54061209 -128.49174706 403.22402965 -142.1171875 390.23828125 C-143.48544553 389.06371492 -144.85980834 387.89619488 -146.2421875 386.73828125 C-160.66663844 374.12058905 -172.31268827 357.61092732 -182.1171875 341.23828125 C-182.50970703 340.59407227 -182.90222656 339.94986328 -183.30664062 339.28613281 C-201.49723136 309.17508364 -213.01500463 272.45832803 -213.35546875 237.12109375 C-213.3652626 236.27451202 -213.37505646 235.4279303 -213.38514709 234.55569458 C-213.75665182 194.07485697 -207.47185891 156.20696242 -188.13818359 120.14453125 C-187.45570472 118.87030957 -186.78156713 117.59158613 -186.11572266 116.30859375 C-177.41951834 99.5634618 -166.1029359 84.86372169 -153.1171875 71.23828125 C-151.94262117 69.87002322 -150.77510113 68.49566041 -149.6171875 67.11328125 C-136.9994953 52.68883031 -120.48983357 41.04278048 -104.1171875 31.23828125 C-103.15087402 30.64950195 -103.15087402 30.64950195 -102.16503906 30.04882812 C-72.05398989 11.85823739 -35.33723428 0.34046412 0 0 Z " fill="#3B6B8B" transform="translate(239.1171875,25.76171875)"/>
<path d="M0 0 C40.26 0 80.52 0 122 0 C124 3 124 3 124 7 C124.66 7 125.32 7 126 7 C126 8.32 126 9.64 126 11 C126.66 11 127.32 11 128 11 C129.36331673 13.98880975 130.69083138 16.98728587 132 20 C132.43570313 20.98613281 132.87140625 21.97226563 133.3203125 22.98828125 C140.62844388 40.30016623 145.69647536 58.67019208 149.2109375 77.109375 C149.90739841 80.92068798 149.90739841 80.92068798 151.0390625 84.203125 C152.42210033 89.66781105 152.56766307 95.37961994 153 101 C135.84 101 118.68 101 101 101 C101 109.58 101 118.16 101 127 C119.81 127 138.62 127 158 127 C158.33 132.61 158.66 138.22 159 144 C159.33 145.98 159.66 147.96 160 150 C160.09138594 151.97797435 160.13775093 153.95840649 160.14526367 155.93847656 C160.15164352 157.08697083 160.15802338 158.23546509 160.16459656 159.41876221 C160.16626579 161.26108429 160.16626579 161.26108429 160.16796875 163.140625 C160.17129715 164.41798523 160.17462555 165.69534546 160.17805481 167.01141357 C160.18402531 169.71123092 160.18589694 172.41101637 160.18530273 175.11083984 C160.18520141 178.54452064 160.19883178 181.97799328 160.21607494 185.41162491 C160.22997328 188.71712742 160.22928651 192.02259374 160.23046875 195.328125 C160.23765427 196.5482428 160.24483978 197.7683606 160.25224304 199.02545166 C160.23373334 206.01090913 159.497295 212.18491865 158 219 C157.67 222.3 157.34 225.6 157 229 C138.52 229 120.04 229 101 229 C101 237.25 101 245.5 101 254 C118.16 254 135.32 254 153 254 C152.38009984 260.19900155 151.78315743 265.67949002 150.4765625 271.66015625 C150.32972015 272.33493515 150.18287781 273.00971405 150.03158569 273.7049408 C149.72336047 275.11452826 149.4123623 276.52351216 149.09863281 277.93188477 C148.62547893 280.06034555 148.1637154 282.19105503 147.703125 284.32226562 C146.31855734 290.65270688 144.87396471 296.89302251 142.69677734 303.00756836 C141.95535371 305.12766587 141.3274656 307.26010564 140.71875 309.421875 C140.51636719 310.13730469 140.31398438 310.85273438 140.10546875 311.58984375 C139.69776081 313.04444046 139.2941921 314.50020299 138.89453125 315.95703125 C137.71788055 320.08655057 136.29025431 323.3367767 134 327 C132.59183784 330.48509749 131.28910459 334.00092294 129.98828125 337.52734375 C127.14477822 343.92382895 123.47299143 349.92226499 120 356 C80.4 356 40.8 356 0 356 C0 238.52 0 121.04 0 0 Z " fill="#FEFEFE" transform="translate(124,74)"/>
<path d="M0 0 C14.21983361 0.311333 28.34888068 0.96524055 42.5 2.4375 C44.27636841 2.62082886 44.27636841 2.62082886 46.08862305 2.80786133 C53.12527942 3.57585042 60.05638746 4.62479261 67 6 C67 6.66 67 7.32 67 8 C68.7325 8.12375 68.7325 8.12375 70.5 8.25 C81.967621 9.55231658 92.73550846 12.78497607 103 18 C104.28031084 18.61913337 105.56163562 19.23617264 106.84375 19.8515625 C144.52458787 38.08898083 172.03237256 65.87949344 189 104 C189.78117187 105.7325 189.78117187 105.7325 190.578125 107.5 C192.13405285 111.32997625 193.34185615 115.14368406 194.4375 119.125 C194.75509277 120.27331299 194.75509277 120.27331299 195.07910156 121.44482422 C199.02193886 136.15509502 202.14538858 151.43328736 202.16796875 166.69921875 C202.17129715 167.49729446 202.17462555 168.29537018 202.17805481 169.11763 C202.18308149 170.79073516 202.18546447 172.46385019 202.18530273 174.13696289 C202.18750309 176.69108412 202.20574134 179.24478226 202.22460938 181.79882812 C202.22754148 183.4322902 202.2295275 185.06575431 202.23046875 186.69921875 C202.23765427 187.45764572 202.24483978 188.21607269 202.25224304 188.9974823 C202.2343147 193.16146538 201.70805249 196.22164316 200 200 C199.63555296 202.09326656 199.63555296 202.09326656 199.54296875 204.1953125 C199.48512207 204.98446045 199.42727539 205.7736084 199.36767578 206.58666992 C199.30821777 207.42431885 199.24875977 208.26196777 199.1875 209.125 C198.03284675 222.59967923 195.10591961 235.8672018 189 248 C188.43729127 249.23511268 187.87917484 250.47232208 187.32421875 251.7109375 C179.37253993 269.32892074 169.87207955 284.53694546 157 299 C156.16855469 299.93457031 155.33710938 300.86914062 154.48046875 301.83203125 C144.97343407 311.85733699 133.41256805 320.17146561 121.625 327.3125 C121.00085205 327.69156494 120.3767041 328.07062988 119.73364258 328.46118164 C116.93244754 330.09861773 115.30194431 331 112 331 C112 331.66 112 332.32 112 333 C103.17448619 336.64287166 94.3302545 339.99024048 85.2421875 342.921875 C82.44238517 343.8528936 79.73194025 344.89029621 77 346 C67.83160855 348.8763581 58.44926595 350.31143381 48.9375 351.5 C47.93235352 351.62673096 46.92720703 351.75346191 45.89160156 351.8840332 C43.86720126 352.13845282 41.84262705 352.39149286 39.81787109 352.64306641 C37.3405712 352.95686059 34.86754783 353.29112279 32.39453125 353.63671875 C21.89990773 355.05786569 11.58167361 355.20907807 1 355 C1.47708252 349.04766361 2.48132188 343.65795777 4.375 338 C4.59833008 337.31010986 4.82166016 336.62021973 5.05175781 335.90942383 C5.69257664 333.93665703 6.34454181 331.96794265 7 330 C7.47566406 328.55173828 7.47566406 328.55173828 7.9609375 327.07421875 C8.6313493 325.046389 9.31433153 323.02272198 10 321 C10.33 320.01 10.66 319.02 11 318 C11.66 318 12.32 318 13 318 C13.09289307 317.36908447 13.18578613 316.73816895 13.28149414 316.08813477 C14.58319851 308.09421482 16.91553114 300.62014089 19.4375 292.9375 C22.57624365 283.2078442 25.16219657 273.65947075 26.46484375 263.50390625 C26.97834556 260.14178129 27.82383195 257.18401978 29 254 C30.918125 253.72736328 30.918125 253.72736328 32.875 253.44921875 C34.58340194 253.19577451 36.29173152 252.9418422 38 252.6875 C39.25876953 252.51057617 39.25876953 252.51057617 40.54296875 252.33007812 C45.35851678 251.60214645 49.63385611 250.52728584 54.14648438 248.70239258 C57.97516421 247.25150851 62.04303032 246.64072382 66.046875 245.84375 C69.02601868 244.99256609 70.64198771 243.94815462 73 242 C73.639375 241.87625 74.27875 241.7525 74.9375 241.625 C78.11189481 240.66306218 79.73984175 238.37040988 82 236 C83.16402344 235.12214844 83.16402344 235.12214844 84.3515625 234.2265625 C87.37311818 231.68631657 89.65767698 228.87853755 91.9375 225.6875 C92.370625 225.08228516 92.80375 224.47707031 93.25 223.85351562 C97.72429849 217.34240961 100.44641405 210.45371034 103 203 C103.36867188 201.97390625 103.73734375 200.9478125 104.1171875 199.890625 C108.26430711 186.3115608 108.72307448 161.21067169 102.92578125 148.21484375 C102 146 102 146 101.04296875 142.75390625 C97.01949938 129.54612162 89.21361512 122.9751657 77.76171875 115.7890625 C75 114 75 114 72.65625 111.9375 C69.21135435 109.42475259 65.90042387 108.4544874 61.8125 107.375 C61.03237549 107.16190186 60.25225098 106.94880371 59.44848633 106.72924805 C52.99509301 105.0592542 46.56582648 104.16147991 39.92700195 103.63232422 C32.18611522 102.99647515 32.18611522 102.99647515 29 101 C27.20752341 97.10618932 26.72718201 93.35798782 26.3125 89.125 C24.29063884 73.99313435 18.94114686 59.17506319 13.84765625 44.828125 C13 42 13 42 13 38 C12.34 38 11.68 38 11 38 C10.80889648 37.29504395 10.61779297 36.59008789 10.42089844 35.86376953 C9.53669008 32.61582005 8.64340523 29.37043123 7.75 26.125 C7.44964844 25.01640625 7.14929688 23.9078125 6.83984375 22.765625 C5.15338184 16.66565638 3.27125056 10.82494936 0.74316406 5.01904297 C0 3 0 3 0 0 Z " fill="#FDFDFE" transform="translate(261,74)"/>
<path d="M0 0 C2 2 2 2 3 9 C-14.16 9 -31.32 9 -49 9 C-49 16.59 -49 24.18 -49 32 C-31.18 32 -13.36 32 5 32 C5 32.33 5 32.66 5 33 C-13.48 33 -31.96 33 -51 33 C-51 24.42 -51 15.84 -51 7 C-33.84 7 -16.68 7 1 7 C0.505 3.535 0.505 3.535 0 0 Z " fill="#7295AC" transform="translate(276,168)"/>
<path d="M0 0 C0.99 0.495 0.99 0.495 2 1 C4.54197964 1.3912935 7.07391589 1.74479119 9.625 2.0625 C10.33140625 2.15337891 11.0378125 2.24425781 11.765625 2.33789062 C13.5100041 2.56183119 15.25495134 2.78133818 17 3 C17 3.33 17 3.66 17 4 C12.38 4 7.76 4 3 4 C2.67 4.99 2.34 5.98 2 7 C1.34 4.69 0.68 2.38 0 0 Z " fill="#D5DFE6" transform="translate(277,124)"/>
<path d="M0 0 C0.33 1.32 0.66 2.64 1 4 C5.95 4 10.9 4 16 4 C16 4.33 16 4.66 16 5 C10.33357449 6.22517308 4.76291482 6.09228867 -1 6 C-0.67 4.02 -0.34 2.04 0 0 Z " fill="#7799AF" transform="translate(261,425)"/>
</svg>
